<?xml version="1.0" encoding="UTF-8" standalone="no"?>
<!DOCTYPE svg PUBLIC "-//W3C//DTD SVG 1.1//EN" "http://www.w3.org/Graphics/SVG/1.1/DTD/svg11.dtd">
<svg width="100%" height="100%" viewBox="0 0 498 311" version="1.1" xmlns="http://www.w3.org/2000/svg" xmlns:xlink="http://www.w3.org/1999/xlink" xml:space="preserve" xmlns:serif="http://www.serif.com/" style="fill-rule:evenodd;clip-rule:evenodd;stroke-linecap:round;stroke-linejoin:round;stroke-miterlimit:1.5;">
    <g>
        <path d="M290.57,272.822L294.508,283.27L289.401,300.482L282.798,307.819L273.754,307.273L271.652,303.425L280.078,286.822L280.044,276.097L274.877,254.78L290.57,257.759L290.57,272.822Z" style="fill:rgb(124,62,42);stroke:black;stroke-width:1px;"/>
        <path d="M232.624,305.457L240.057,300.522L240.411,279.668L258.688,255.451L244.153,253.365L229.157,276.906L227.206,289.691L227.9,302.742L232.624,305.457Z" style="fill:rgb(124,62,42);stroke:black;stroke-width:1px;"/>
        <path d="M311.737,150.684L322.842,222.422L323.043,256.812L292.882,262.079L238.071,255.796L206.622,237.72L215.995,208.511L249.548,150.244L311.737,150.684Z" style="fill:rgb(196,30,60);stroke:black;stroke-width:1px;"/>
        <path d="M316.88,183.021L294.508,188.147L292.882,163.758" style="fill:rgb(196,30,60);stroke:black;stroke-width:1px;"/>
        <path d="M235.23,175.952L255.052,185.091L267.565,155.5" style="fill:rgb(196,30,60);stroke:black;stroke-width:1px;"/>
        <path d="M250.537,132.228L231.328,135.337L244.345,100.522L250.537,132.228Z" style="fill:rgb(216,114,128);stroke:black;stroke-width:1px;"/>
        <path d="M304.489,144.489L285.089,72.751L238.448,84.543L250.265,138.94L242.947,146.876L262.841,159.7L287.47,159.674L304.489,144.489Z" style="fill:rgb(24,33,22);stroke:black;stroke-width:1px;"/>
        <path d="M313.566,70.236L320.671,63.347L329.594,71.397L318.719,84.398L313.566,70.236Z" style="fill:rgb(243,217,172);stroke:black;stroke-width:1px;"/>
        <path d="M195.898,77.796L195.705,68.707L199.634,64.886L207.887,66.529L208.199,77.907L195.898,77.796Z" style="fill:rgb(243,217,172);stroke:black;stroke-width:1px;"/>
        <path d="M275.209,86.261L267.565,90.298L258.688,90.298L242.947,75.855L242.028,56.62L259.547,33.401L288.453,63.347L288.909,73.873L275.209,86.261Z" style="fill:rgb(243,217,172);stroke:black;stroke-width:1px;"/>
        <path d="M253.124,59.679L247.994,58.608L242.697,61.046" style="fill:rgb(243,217,172);stroke:black;stroke-width:1px;"/>
        <path d="M279.903,61.928L275.699,59.679L269.224,60.478" style="fill:rgb(243,217,172);stroke:black;stroke-width:1px;"/>
        <path d="M267.728,85.295L264.832,86.253L260.857,85.627" style="fill:rgb(243,217,172);stroke:black;stroke-width:1px;"/>
        <path d="M288.915,169.191L319.56,148.798L319.167,133.256L316.88,118.738L305.758,119.017L316.88,118.738L335.428,112.454L330.96,69.468L323.043,75.938L315.48,76.662L312.512,98.649L314.279,85.56L305.758,77.907L288.63,74.804L279.816,100.015L288.915,169.191Z" style="fill:rgb(252,231,228);stroke:black;stroke-width:1px;"/>
        <path d="M230.694,154.292L239.576,119.329L250.265,97.645L253.124,85.473L244.681,76.822L242.947,69.468L223.779,75.487L214.367,86.847L216.206,80.408L212.001,80.934L209.767,73.873L201.952,76.073L194.001,71.397L191.767,73.873L190.669,94.79L192.538,106.489L230.851,103.691L236.743,90.395L230.851,103.691L222.549,126.537L222.46,148.757L227.206,154.134L230.694,154.292Z" style="fill:rgb(252,231,228);stroke:black;stroke-width:1px;"/>
        <path d="M307.622,80.073L292.882,94.234L280.879,100.522" style="fill:rgb(252,231,228);stroke:black;stroke-width:1px;"/>
        <path d="M238.448,71.397L242.028,84.398L251.007,93.748" style="fill:rgb(252,231,228);stroke:black;stroke-width:1px;"/>
        <path d="M294.251,98.986L294.251,63.347L288.909,41.767L258.688,30.933L235.23,42.36L234.995,49.693L230.396,56.686L236.743,57.221L235.082,64.398L240.951,61.744L244.681,54.438L244.345,56.877L258.688,46.238L273.332,57.578L274.451,52.067L288.216,63.739L294.251,98.986Z" style="fill:rgb(68,23,20);stroke:black;stroke-width:1px;"/>
        <path d="M294.251,66.347L288.909,66.68L289.791,70.651L294.251,70.76L294.251,66.347Z" style="fill:rgb(138,126,112);stroke:black;stroke-width:1px;"/>
        <path d="M237.476,42.953L256.481,39.489L274.564,42.316L290.966,52.705L294.508,63.347L298.102,66.347L302.184,62.007L299.872,51.974L299.806,23.612L294.251,13.897L275.972,6.873L262.323,6.242L253.124,11.314L241.995,22.693L237.476,42.953Z" style="fill:rgb(227,209,194);stroke:black;stroke-width:1px;"/>
        <path d="M273.628,28.551L278.418,26.506L275.834,23.17L270.022,22.954L273.628,28.551Z" style="fill:rgb(133,108,86);stroke:black;stroke-width:1px;"/>
        <path d="M258.688,25.752L265.468,22.954L262.323,18.461L257.429,19.927L258.688,25.752Z" style="fill:rgb(133,108,86);stroke:black;stroke-width:1px;"/>
        <path d="M257.429,32.167L260.857,35.399L267.565,36.295L274.22,30.933L271.652,24.563L265.468,21.848L257.765,25.752L257.429,32.167Z" style="fill:rgb(133,108,86);stroke:black;stroke-width:1px;"/>
        <path d="M270.21,34.249L267.565,28.551L262.323,27.578L257.429,32.035" style="fill:rgb(133,108,86);stroke:black;stroke-width:1px;"/>
        <path d="M238.448,69.468L227.133,71.834L215.444,87.453L213.308,86.08L225.61,70.568L229.133,61.849L237.9,61.744L238.448,69.468Z" style="fill:rgb(196,30,60);stroke:black;stroke-width:1px;"/>
        <path d="M302.184,61.849L304.881,74.599L301.133,82.572L306.126,102.018L304.286,102.806L299.317,83.312L296.153,68.553L302.184,61.849Z" style="fill:rgb(196,30,60);stroke:black;stroke-width:1px;"/>
        <path d="M274.22,3.816L267.728,5.246L275.057,7.18L275.057,11.216L283.08,9.282L291.58,16.934L292.882,13.15L288.909,4.404L274.22,3.816Z" style="fill:rgb(196,30,60);stroke:black;stroke-width:1px;"/>
        <path d="M278.679,271.296L283.08,270.323L281.201,273.982L278.679,271.296Z" style="stroke:black;stroke-width:1px;"/>
        <path d="M280.879,275.507L285.089,275.05L283.08,278.763L280.879,275.507Z" style="stroke:black;stroke-width:1px;"/>
        <path d="M281.523,282.073L287.47,281.844L283.08,285.382L281.523,282.073Z" style="stroke:black;stroke-width:1px;"/>
        <path d="M246.807,260.427L251.005,262.332L246.647,263.732L246.807,260.427Z" style="stroke:black;stroke-width:1px;"/>
        <path d="M241.995,264.84L247.367,267.521L244.153,268.597L241.995,264.84Z" style="stroke:black;stroke-width:1px;"/>
        <path d="M239.161,268.597L245.159,271.288L241.134,272.342L241.92,276.906L236.743,275.05L240.058,272.17L239.161,268.597Z" style="stroke:black;stroke-width:1px;"/>
        <path d="M250.265,158.261L255.983,158.765L252.338,163.472L250.265,158.261Z" style="stroke:black;stroke-width:1px;"/>
        <path d="M301.133,162.939L305.758,162.434L303.067,167.746L301.133,162.939Z" style="stroke:black;stroke-width:1px;"/>
        <path d="M283.74,102.665L285.317,105.687L287.419,103.191L283.74,102.665Z" style="stroke:black;stroke-width:1px;"/>
        <path d="M285.842,122.242L287.813,125.79L290.277,121.717L285.842,122.242Z" style="stroke:black;stroke-width:1px;"/>
        <path d="M288.338,140.505L290.572,143.79L292.411,139.98L288.338,140.505Z" style="stroke:black;stroke-width:1px;"/>
        <path d="M290.966,156.929L292.087,160.476L295.17,156.929L290.966,156.929Z" style="stroke:black;stroke-width:1px;"/>
        <path d="M248.419,94.256L244.345,95.044L246.053,97.672L248.419,94.256Z" style="stroke:black;stroke-width:1px;"/>
        <path d="M241.17,111.599L237.097,111.074L238.411,114.753L241.17,111.599Z" style="stroke:black;stroke-width:1px;"/>
        <path d="M234.995,128.286L230.396,128.285L232.104,132.228L234.995,128.286Z" style="stroke:black;stroke-width:1px;"/>
        <path d="M229.163,144.972L225.878,144.972L227.206,148.651L229.163,144.972Z" style="stroke:black;stroke-width:1px;"/>
        <path d="M254.785,66.966L253.124,69.468L249.677,69.215L246.289,66.031L251.316,64.884L254.785,66.966Z" style="stroke:black;stroke-width:1px;"/>
        <path d="M277.169,70.76L273.301,70.003L270.21,66.347L274.564,64.96L279.903,67.564L277.169,70.76Z" style="stroke:black;stroke-width:1px;"/>
    </g>
</svg>
