<?xml version="1.0" encoding="UTF-8" standalone="no"?>
<!DOCTYPE svg PUBLIC "-//W3C//DTD SVG 1.1//EN" "http://www.w3.org/Graphics/SVG/1.1/DTD/svg11.dtd">
<svg width="100%" height="100%" viewBox="0 0 498 311" version="1.1" xmlns="http://www.w3.org/2000/svg" xmlns:xlink="http://www.w3.org/1999/xlink" xml:space="preserve" xmlns:serif="http://www.serif.com/" style="fill-rule:evenodd;clip-rule:evenodd;stroke-linecap:round;stroke-linejoin:round;stroke-miterlimit:1.5;">
    <g>
        <path d="M287.58,268.137L281.482,287.455L282.417,303.94L279.819,307.556L268.3,307.832L264.89,304.542L273.075,285.873L276.302,267.568L287.58,268.137Z" style="fill:rgb(124,62,42);stroke:black;stroke-width:1px;"/>
        <path d="M171.113,261.712L173.026,269.572L179.98,268.976L186.06,256.462L205.977,234.019L200.64,225.714L183.009,240.087L171.113,261.712Z" style="fill:rgb(124,62,42);stroke:black;stroke-width:1px;"/>
        <path d="M304.103,153.231L296.916,214.386L296.698,270.133L277.373,270.248L224.546,250.183L199.031,234.056L199.147,223.789L218.28,207.367L242.046,151.771L304.103,153.231Z" style="fill:rgb(196,30,60);stroke:black;stroke-width:1px;"/>
        <path d="M299.377,190.273L282.745,191.413L284.763,161.022" style="fill:rgb(196,30,60);stroke:black;stroke-width:1px;"/>
        <path d="M244.464,155.31L233.815,182.283L254.982,188.744L263.324,161.814" style="fill:rgb(196,30,60);stroke:black;stroke-width:1px;"/>
        <path d="M246.825,132.54L219.942,139.952L233.752,100.233L246.825,132.54Z" style="fill:rgb(216,114,128);stroke:black;stroke-width:1px;"/>
        <path d="M293.105,161.008L262.491,66.289L224.241,78.838L245.233,133.014L244.181,140.687L239.241,149.726L246.178,157.399L263.206,161.814L293.105,161.008Z" style="fill:rgb(24,33,22);stroke:black;stroke-width:1px;"/>
        <path d="M349.537,108.484L358.35,108.821L361.108,114.068L353.506,120.593L348.259,119.624L349.537,108.484Z" style="fill:rgb(243,217,172);stroke:black;stroke-width:1px;"/>
        <path d="M197.038,52.212L199.736,42.483L210.648,41.626L210.6,45.915L200.541,55.979L197.038,52.212Z" style="fill:rgb(243,217,172);stroke:black;stroke-width:1px;"/>
        <path d="M257.992,84.334L240.627,93.57L219.906,82.799L212.106,52.504L219.088,39.11L269.638,62.706L257.992,84.334Z" style="fill:rgb(243,217,172);stroke:black;stroke-width:1px;"/>
        <path d="M226.781,63.919L220.64,61.493L214.757,62.451" style="fill:rgb(243,217,172);stroke:black;stroke-width:1px;"/>
        <path d="M247.991,65.382L242.349,63.028L236.1,63.922" style="fill:rgb(243,217,172);stroke:black;stroke-width:1px;"/>
        <path d="M291.14,166.19L305.556,153.475L309.888,138.088L303.576,118.115L292.622,117.981L303.576,118.115L350.981,121.226L350.362,114.275L354.481,107.486L308.354,87.199L298.312,80.381L283.093,77.03L264.437,73.178L265.991,111.871L291.14,166.19Z" style="fill:rgb(252,231,228);stroke:black;stroke-width:1px;"/>
        <path d="M217.866,158.239L224.655,131.428L234.122,112.592L237.437,91.726L212.602,77.065L207.739,51.313L200.907,54.204L196.635,45.729L190.416,68.125L186.06,96.94L202.044,101.149L225.725,101.68L228.637,98.154L225.725,101.68L218.003,129.385L217.866,158.239Z" style="fill:rgb(252,231,228);stroke:black;stroke-width:1px;"/>
        <path d="M288.055,78.838L278.088,94.322L265.411,107.594" style="fill:rgb(252,231,228);stroke:black;stroke-width:1px;"/>
        <path d="M227.234,85.791L229.279,101.075L234.122,112.592" style="fill:rgb(252,231,228);stroke:black;stroke-width:1px;"/>
        <path d="M263.324,99.725L262.491,20.363L212.105,43.103L207.705,62.706L213.668,62.706L220.769,48.791L227.772,64.205L230.286,59.316L234.326,66.289L238.093,61.493L247.991,65.382L250.538,63.028L254.185,66.289L263.324,99.725Z" style="fill:rgb(68,23,20);stroke:black;stroke-width:1px;"/>
        <path d="M262.122,72.182L256.92,72.488L257.368,77.531L262.491,77.548L262.122,72.182Z" style="fill:rgb(138,126,112);stroke:black;stroke-width:1px;"/>
        <path d="M243.08,45.776L255.474,52.063L265.351,69.637L279.283,69.176L274.58,54.463L279.602,47.094L275.77,40.499L275.2,13.968L261.243,4.28L244.628,5.497L224.255,18.643L212.105,44.098L243.08,45.776Z" style="fill:rgb(227,209,194);stroke:black;stroke-width:1px;"/>
        <path d="M239.176,31.952L244.628,29.907L242.044,26.571L236.232,26.355L239.176,31.952Z" style="fill:rgb(133,108,86);stroke:black;stroke-width:1px;"/>
        <path d="M226.579,30.046L233.51,26.355L230.442,22.51L225.708,24.698L226.579,30.046Z" style="fill:rgb(133,108,86);stroke:black;stroke-width:1px;"/>
        <path d="M224.546,35.888L228.049,39.11L235.896,37.71L239.838,31.433L237.281,25.151L230.874,24.794L225.375,29.623L224.546,35.888Z" style="fill:rgb(133,108,86);stroke:black;stroke-width:1px;"/>
        <path d="M233.51,37.973L231.257,32.665L225.055,33.446" style="fill:rgb(133,108,86);stroke:black;stroke-width:1px;"/>
        <path d="M216.722,77.548L210.614,78.449L196.282,87.838L194.654,85.585L208.052,75.85L207.533,68.203L214.156,58.815L216.722,77.548Z" style="fill:rgb(196,30,60);stroke:black;stroke-width:1px;"/>
        <path d="M274.04,65.716L279.628,69.817L279.416,83.628L287.545,96.836L285.904,98.154L269.078,73.002L274.04,65.716Z" style="fill:rgb(196,30,60);stroke:black;stroke-width:1px;"/>
        <path d="M262.571,1.233L248.936,3.199L246.965,5.506L253.573,5.622L253.808,9.418L261.887,8.839L265.661,13.968L268.81,10.308L273.034,13.508L270.589,3.931L262.571,1.233Z" style="fill:rgb(196,30,60);stroke:black;stroke-width:1px;"/>
        <path d="M278.272,271.758L282.905,272.208L279.611,274.259L278.272,271.758Z" style="stroke:black;stroke-width:1px;"/>
        <path d="M277.33,276.683L281.964,277.133L278.67,279.183L277.33,276.683Z" style="stroke:black;stroke-width:1px;"/>
        <path d="M276.072,280.723L280.478,282.269L277.74,283.777L276.072,280.723Z" style="stroke:black;stroke-width:1px;"/>
        <path d="M274.801,285.71L279.806,287.163L276.362,288.078L274.801,285.71Z" style="stroke:black;stroke-width:1px;"/>
        <path d="M196.438,231.907L201.517,235.659L196.992,236.016L196.438,231.907Z" style="stroke:black;stroke-width:1px;"/>
        <path d="M193.166,236.166L196.882,238.267L193.606,239.358L193.166,236.166Z" style="stroke:black;stroke-width:1px;"/>
        <path d="M190.437,238.486L193.646,242.883L190.043,243.226L189.217,246.026L185.397,243.238L189.298,242.17L190.437,238.486Z" style="stroke:black;stroke-width:1px;"/>
        <path d="M247.925,162.743L253.643,163.247L249.998,167.954L247.925,162.743Z" style="stroke:black;stroke-width:1px;"/>
        <path d="M294.091,166.499L298.716,165.994L296.025,171.306L294.091,166.499Z" style="stroke:black;stroke-width:1px;"/>
        <path d="M269.638,108.804L271.215,111.826L273.317,109.33L269.638,108.804Z" style="stroke:black;stroke-width:1px;"/>
        <path d="M274.359,121.118L276.33,124.666L278.794,120.593L274.359,121.118Z" style="stroke:black;stroke-width:1px;"/>
        <path d="M281.437,136.211L283.671,139.496L285.51,135.686L281.437,136.211Z" style="stroke:black;stroke-width:1px;"/>
        <path d="M289.937,155.748L292.052,159.793L294.141,155.748L289.937,155.748Z" style="stroke:black;stroke-width:1px;"/>
        <path d="M233.018,110.11L230.128,109.979L231.573,113.264L233.018,110.11Z" style="stroke:black;stroke-width:1px;"/>
        <path d="M227.131,122.044L224.241,121.913L225.686,125.198L227.131,122.044Z" style="stroke:black;stroke-width:1px;"/>
        <path d="M221.847,134.276L219.088,134.538L220.422,136.356L221.847,134.276Z" style="stroke:black;stroke-width:1px;"/>
        <path d="M219.939,147.888L216.722,147.913L218.213,149.507L219.939,147.888Z" style="stroke:black;stroke-width:1px;"/>
        <path d="M245.692,68.125L249.3,73.157L244.403,73.422L242.005,68.138L245.692,68.125Z" style="stroke:black;stroke-width:1px;"/>
        <path d="M224.887,72.155L221.33,72.537L218.28,67.007L222.28,66.289L224.887,72.155Z" style="stroke:black;stroke-width:1px;"/>
        <path d="M240.16,87.084L236.025,87.008" style="stroke:black;stroke-width:1px;"/>
    </g>
</svg>
