<?xml version="1.0" encoding="UTF-8" standalone="no"?>
<!DOCTYPE svg PUBLIC "-//W3C//DTD SVG 1.1//EN" "http://www.w3.org/Graphics/SVG/1.1/DTD/svg11.dtd">
<svg width="100%" height="100%" viewBox="0 0 498 311" version="1.1" xmlns="http://www.w3.org/2000/svg" xmlns:xlink="http://www.w3.org/1999/xlink" xml:space="preserve" xmlns:serif="http://www.serif.com/" style="fill-rule:evenodd;clip-rule:evenodd;stroke-linecap:round;stroke-linejoin:round;stroke-miterlimit:1.5;">
    <g>
        <path d="M286.519,274.714L280.633,290.354L279.96,306.92L265.244,307.088L270.671,287.075L274.746,272.023L286.519,274.714Z" style="fill:rgb(124,62,42);stroke:black;stroke-width:1px;"/>
        <path d="M197.815,300.482L204.743,292.208L204.071,274.448L212.883,253.662L203.264,251.711L193.644,272.023L191.693,284.808L192.433,294.697L197.815,300.482Z" style="fill:rgb(124,62,42);stroke:black;stroke-width:1px;"/>
        <path d="M298.136,151.71L296.56,280.216L200.688,253.117L240.925,155.5L298.136,151.71Z" style="fill:rgb(196,30,60);stroke:black;stroke-width:1px;"/>
        <path d="M240.057,132.678L225.191,137.051L226.57,94.57L240.057,132.678Z" style="fill:rgb(216,114,128);stroke:black;stroke-width:1px;"/>
        <path d="M304.489,144.489L277.423,122.81L259.478,63.423L225.009,63.16L226.602,105.435L230.347,108.062L238.824,131.688L237.772,139.361L232.832,148.4L239.769,156.073L256.797,160.488L297.055,154.287L304.489,144.489Z" style="fill:rgb(24,33,22);stroke:black;stroke-width:1px;"/>
        <path d="M349.961,88.762L358.774,89.099L361.532,94.346L353.93,100.871L348.683,99.902L349.961,88.762Z" style="fill:rgb(243,217,172);stroke:black;stroke-width:1px;"/>
        <path d="M193.06,39.217L193.813,32.759L197.742,28.938L204.523,29.53L206.622,32.92L199.303,42.984L193.06,39.217Z" style="fill:rgb(243,217,172);stroke:black;stroke-width:1px;"/>
        <path d="M246.079,71.281L238.616,76.957L234.727,77.377L227.264,72.437L219.906,72.647L208.765,55.094L210.552,28.186L221.588,21.248L249.548,43.847L246.079,71.281Z" style="fill:rgb(243,217,172);stroke:black;stroke-width:1px;"/>
        <path d="M218.183,36.26L214.735,34.663L211.96,34.999" style="fill:rgb(243,217,172);stroke:black;stroke-width:1px;"/>
        <path d="M242.484,42.903L239.121,40.549L233.907,40.717" style="fill:rgb(243,217,172);stroke:black;stroke-width:1px;"/>
        <path d="M269.731,166.363L291.226,152.881L301.428,131.873L293.217,107.238L284.68,107.622L293.217,107.238L330.263,105.169L350.535,101.326L351.028,92.293L356.776,87.366L347.936,84.6L299.786,79.154L288.782,73.406L280.078,75.212L266.939,72.749L255.114,77.84L255.114,114.136L269.731,166.363Z" style="fill:rgb(252,231,228);stroke:black;stroke-width:1px;"/>
        <path d="M231.22,165.118L226.306,126.293L227.084,98.959L231.53,75.225L226.932,72.749L219.837,72.597L212.742,63.137L204.381,63.46L202.673,58.598L203.067,49.401L204.906,38.364L198.074,41.255L190.322,34.686L179.811,83.825L217.519,95.913L217.978,88.288L217.519,95.913L218.571,145.709L222.644,155.5L231.22,165.118Z" style="fill:rgb(252,231,228);stroke:black;stroke-width:1px;"/>
        <path d="M246.646,91.127L249.811,86.165L252.712,64.582L264.788,17.53L215.245,19.431L208.221,27.459L205.671,28.72L207.717,31.075L205.671,49.675L207.902,47.707L213.267,33.345L221.507,22.988L224.03,24.179L224.282,35.529L230,32.252L232.859,43.267L238.073,39.063L241.1,46.715L246.646,46.042L245.641,80.968L246.646,91.127Z" style="fill:rgb(68,23,20);stroke:black;stroke-width:1px;"/>
        <path d="M252.509,53.95L246.395,53.261L246.18,58.47L252.712,58.901L252.509,53.95Z" style="fill:rgb(138,126,112);stroke:black;stroke-width:1px;"/>
        <path d="M252.983,64.687L266.749,66.471L267.406,60.165L275.815,55.96L275.946,46.632L278.048,22.456L267.668,9.711L256.369,4.981L241.785,4.587L234.953,9.843L226.15,9.58L215.245,19.171L231.53,21.011L245.464,28.763L252.033,41.245L255.114,50.048L252.427,53.332L252.983,64.687Z" style="fill:rgb(227,209,194);stroke:black;stroke-width:1px;"/>
        <path d="M246.215,14.424L251.005,12.379L248.421,9.043L242.609,8.827L246.215,14.424Z" style="fill:rgb(133,108,86);stroke:black;stroke-width:1px;"/>
        <path d="M230.016,14.424L233.353,16.9L242.609,16.577L246.054,11.626L241.425,7.913L234.106,7.805L230.016,11.142L230.016,14.424Z" style="fill:rgb(133,108,86);stroke:black;stroke-width:1px;"/>
        <path d="M239.808,16.675L237.307,11.615L232.265,9.247" style="fill:rgb(133,108,86);stroke:black;stroke-width:1px;"/>
        <path d="M211.279,60.34L206.57,65.189L201.861,78.24L201.188,86.379L198.632,86.447L199.035,78.038L204.417,62.767L203.946,50.793L209.664,46.69L211.279,60.34Z" style="fill:rgb(196,30,60);stroke:black;stroke-width:1px;"/>
        <path d="M260.989,60.34L266.245,68.618L260.332,80.837L263.223,100.808L261.383,101.596L258.23,81.362L252.712,68.223L260.989,60.34Z" style="fill:rgb(196,30,60);stroke:black;stroke-width:1px;"/>
        <path d="M275.972,8.609L268.656,8.357L267.731,12.982L264.788,13.066L273.617,18.195L273.617,22.988L279.167,20.718L278.048,11.804L275.972,8.609Z" style="fill:rgb(196,30,60);stroke:black;stroke-width:1px;"/>
        <path d="M218.391,41.088L217.045,46.638L213.598,46.385L214.186,40.583L218.391,41.088Z" style="stroke:black;stroke-width:1px;"/>
        <path d="M236.386,51.851L232.518,51.094L232.265,45.46L235.229,44.535L239.161,47.815L236.386,51.851Z" style="stroke:black;stroke-width:1px;"/>
        <path d="M223.266,65.744L219.338,66.497" style="fill:none;stroke:black;stroke-width:1px;"/>
    </g>
</svg>
