<?xml version="1.0" encoding="UTF-8" standalone="no"?>
<!DOCTYPE svg PUBLIC "-//W3C//DTD SVG 1.1//EN" "http://www.w3.org/Graphics/SVG/1.1/DTD/svg11.dtd">
<svg width="100%" height="100%" viewBox="0 0 498 311" version="1.1" xmlns="http://www.w3.org/2000/svg" xmlns:xlink="http://www.w3.org/1999/xlink" xml:space="preserve" xmlns:serif="http://www.serif.com/" style="fill-rule:evenodd;clip-rule:evenodd;stroke-linecap:round;stroke-linejoin:round;stroke-miterlimit:1.5;">
    <g>
        <path d="M290.822,258.321L286.52,291.874L278.758,306.672L268.565,307.658L266.305,301.36L274.225,288.26L277.539,256.96L290.822,258.321Z" style="fill:rgb(124,62,42);stroke:black;stroke-width:1px;"/>
        <path d="M190.56,207.524L184.406,209.319L172.407,228.644L173.969,239.716L179.783,239.052L193.573,224.02L218.264,222.262L212.75,211.128L196.975,212.153L190.56,207.524Z" style="fill:rgb(124,62,42);stroke:black;stroke-width:1px;"/>
        <path d="M311.101,152.679L311.262,253.127L308.882,261.435L268.09,257.493L234.952,240.131L207.426,211.05L224.828,209.118L230.127,203.162L252.174,154.717L311.101,152.679Z" style="fill:rgb(196,30,60);stroke:black;stroke-width:1px;"/>
        <path d="M254.722,140.79L239.508,145.255L245.892,114.73L254.722,140.79Z" style="fill:rgb(216,114,128);stroke:black;stroke-width:1px;"/>
        <path d="M288.754,165.218L278.859,63.711L254.722,68.578L241.575,93.806L251.617,141.004L247.115,152.679L260.567,161.375L288.754,165.218Z" style="fill:rgb(24,33,22);stroke:black;stroke-width:1px;"/>
        <path d="M344.31,145.255L356.995,138.884L359.045,145.255L352.032,150.648L344.31,145.255Z" style="fill:rgb(243,217,172);stroke:black;stroke-width:1px;"/>
        <path d="M214.387,55.323L218.405,49.083L224.98,47.755L231.254,54.91L229.016,64.88L214.387,55.323Z" style="fill:rgb(243,217,172);stroke:black;stroke-width:1px;"/>
        <path d="M283.887,38.662L261.563,79.615L256.969,79.756L255.302,75.167L241.741,65.289L233.495,54.323L233.839,43.796L240.404,23.745L254.722,12.511L283.887,38.662Z" style="fill:rgb(243,217,172);stroke:black;stroke-width:1px;"/>
        <path d="M252.188,33.777L246.433,32.027L239.681,33.468" style="fill:rgb(243,217,172);stroke:black;stroke-width:1px;"/>
        <path d="M271.693,41.829L266.739,37.979L260.055,37.52" style="fill:rgb(243,217,172);stroke:black;stroke-width:1px;"/>
        <path d="M251.545,61.55L248.5,62.85L245.887,61.185" style="fill:rgb(243,217,172);stroke:black;stroke-width:1px;"/>
        <path d="M275.11,171.376L309.681,156.842L314.367,147.989L312.062,131.08L295.333,122.931L312.062,131.08L344.499,148.806L355.077,141.501L359.431,141.903L358.682,137.174L332.421,115.879L320.275,97.259L312.992,94.6L298.312,80.381L280.028,74.319L271.693,104.917L275.11,171.376Z" style="fill:rgb(252,231,228);stroke:black;stroke-width:1px;"/>
        <path d="M241.586,161.627L248.67,97.395L253.06,73.676L241.993,73.818L231.587,76.15L229.039,81.561L231.971,57.065L223.016,58.777L215.427,51.941L208.631,71.912L209.266,104.301L236.038,101.975L237.329,98.744L236.038,101.975L228.374,137.05L228.611,152.222L236.896,161.281L241.586,161.627Z" style="fill:rgb(252,231,228);stroke:black;stroke-width:1px;"/>
        <path d="M257.903,91.357L271.693,77.549L282.572,58.314L287.678,67.6L290.822,64.88L300.443,66.212L278.747,13.634L245.107,12.223L231.749,29.94L241.192,33.309L250.715,19.567L255.708,19.488L253.575,34.638L257.956,26.618L259.344,38.778L265.497,32.394L269.431,39.64L274.624,40.272L276.983,49.243L257.903,91.357Z" style="fill:rgb(68,23,20);stroke:black;stroke-width:1px;"/>
        <path d="M280.807,58.363L275.038,54.927L272.009,60.453L278.339,63.728L280.807,58.363Z" style="fill:rgb(138,126,112);stroke:black;stroke-width:1px;"/>
        <path d="M239.508,31.74L233.441,29.232L230.336,34.607L236.44,37.362L239.508,31.74Z" style="fill:rgb(138,126,112);stroke:black;stroke-width:1px;"/>
        <path d="M241.05,16.138L255.562,14.802L271.693,21.034L284.057,37.52L279.718,48.54L280.641,54.697L286.809,53.797L288.125,60.831L297.702,56.317L299.512,50.445L308.277,49.377L307.881,30.314L298.184,14.892L280.21,2.648L256.051,4.08L242.773,11.06L241.05,16.138Z" style="fill:rgb(227,209,194);stroke:black;stroke-width:1px;"/>
        <path d="M272.009,12.223L276.864,10.345L275.899,7.13L269.736,6.612L272.009,12.223Z" style="fill:rgb(133,108,86);stroke:black;stroke-width:1px;"/>
        <path d="M260.875,12.595L268.362,14.476L273.451,11.639L270.894,5.357L265.03,3.552L257.727,4.036L256.881,8.896L260.875,12.595Z" style="fill:rgb(133,108,86);stroke:black;stroke-width:1px;"/>
        <path d="M267.48,13.89L265.874,8.118L257.233,7.571" style="fill:rgb(133,108,86);stroke:black;stroke-width:1px;"/>
        <path d="M232.751,56.686L228.176,57.115L216.908,75.815L215.398,73.209L226.556,55.578L226.981,40.388L235.607,38.778L232.751,56.686Z" style="fill:rgb(196,30,60);stroke:black;stroke-width:1px;"/>
        <path d="M286.034,53.572L287.02,64.88L276.408,70.879L268.152,83.862L266.5,82.314L274.663,69.559L276.408,53.692L286.034,53.572Z" style="fill:rgb(196,30,60);stroke:black;stroke-width:1px;"/>
        <path d="M311.262,26.22L303.167,20.997L298.427,23.537L303.167,24.122L303.167,33.777L307.022,33.006L309.858,37.362L311.262,26.22Z" style="fill:rgb(196,30,60);stroke:black;stroke-width:1px;"/>
        <path d="M269.736,46.888L267.121,51.543L262.884,50.676L262.278,44.167L266.345,42.776L269.736,46.888Z" style="stroke:black;stroke-width:1px;"/>
        <path d="M245.543,46.508L242.457,46.607L241.199,40.889L244.916,38.545L246.707,42.057L245.543,46.508Z" style="stroke:black;stroke-width:1px;"/>
    </g>
</svg>
